<svg version="1.2" xmlns="http://www.w3.org/2000/svg" viewBox="0 0 5008 3605" width="508" height="366">
	<title>pencil100_82-eps</title>
	<defs>
		<clipPath clipPathUnits="userSpaceOnUse" id="cp1">
			<path d="m-1102-1207h7194v6115h-7194z"/>
		</clipPath>
	</defs>
	<style>
		.s0 { fill: #cccccc } 
		.s1 { fill: #1a1a1a } 
		.s2 { fill: #ff4836 } 
		.s3 { fill: #da1d29 } 
		.s4 { fill: #ff7182 } 
		.s5 { fill: #f9c923 } 
		.s6 { fill: #ffa0a0 } 
		.s7 { fill: #f03663 } 
		.s8 { fill: #ffeb61 } 
		.s9 { fill: #efa914 } 
		.s10 { fill: #ffde98 } 
		.s11 { fill: #fff6c1 } 
		.s12 { fill: #f8bf70 } 
		.s13 { fill: #5f5f5f } 
		.s14 { fill: #92deda } 
		.s15 { fill: #47aab0 } 
		.s16 { fill: #c0faf1 } 
		.s17 { fill: #989898 } 
		.s18 { fill: #ffffff } 
		.s19 { fill: #b9dae9 } 
		.s20 { fill: #ffd595 } 
		.s21 { fill: #fff5c9 } 
		.s22 { fill: #ffb16f } 
		.s23 { fill: #808080 } 
		.s24 { fill: #b4b4b4 } 
		.s25 { fill: #616161 } 
		.s26 { fill: #ff994d } 
		.s27 { fill: #ff6727 } 
		.s28 { fill: #e0d6c6 } 
		.s29 { fill: #c2b49f } 
		.s30 { fill: #3d9de4 } 
		.s31 { fill: #1a76b9 } 
		.s32 { fill: #75cbf6 } 
		.s33 { fill: #d8d8d8 } 
		.s34 { fill: #b3b3b3 } 
	</style>
	<g id="Page 1" clip-path="url(#cp1)">
		<path id="Path 2" class="s0" d="m2795 3432.2c0 95.1-308.4 172.2-688.8 172.2-380.4 0-688.8-77.1-688.8-172.2 0-45.6 72.6-89.4 201.8-121.7 129.1-32.3 304.3-50.5 487-50.5 182.7 0 357.9 18.2 487 50.5 129.2 32.3 201.8 76.1 201.8 121.7z"/>
		<path id="Path 3" fill-rule="evenodd" class="s1" d="m368.8 2654.5c5.7-121.2 104.7-216.6 227.4-216.6 122.7 0 221.7 95.4 227.4 216.6q0.3 5.2 0.3 10.4 0 0.3 0 0.6 0 1.8-0.1 3.5 0 3.2-0.2 6.3c-1.6 36.4-11.9 72-30.1 103.7l-197.3 341.8-197.2-341.9c-18.2-31.6-28.5-67.2-30.2-103.6q-0.2-4.9-0.3-9.8 0-2.6 0.1-5.1 0.1-3 0.2-5.9zm526.5 183.1l-299.1 518.4-299-518.4c-29.4-51.2-45.3-109-46.1-168.1q0-1.8 0-3.6v-0.3c0-189.9 155.2-345.2 345.1-345.2v0.2c189.9 0 345.1 155.3 345.1 345.2q0 0.8 0 1.6c-0.4 59.8-16.3 118.5-46 170.2zm-327.4-183.2c-1 2.7-1.6 5.6-1.9 8.6q0 1.3 0 2.6c0 3.4 0.5 6.7 1.4 9.7 3.8 12.3 14.9 20.5 28.8 20.5 14 0 25-8.2 28.9-20.4h-0.1q1-3.2 1.4-6.7 0.1-1.6 0.1-3.1 0-1.8-0.2-3.6-0.4-4-1.7-7.6c-4.2-11.4-14.9-19.1-28.4-19.1-13.4 0-24.1 7.7-28.3 19.1zm28.3 158.9c-80.9 0-147.8-66.8-147.8-147.8 0-80.9 66.9-147.7 147.8-147.7 80.9 0 147.7 66.9 147.8 147.8q0 1.4-0.1 2.8c-1.6 79.6-67.8 144.9-147.7 144.9z"/>
		<path id="Path 4" class="s2" d="m507.9 2654.4c-0.4 3.7-0.7 7.4-0.7 11.2 0 49.1 39.9 89 89 89 49.2 0 89-39.9 89-89 0-3.8-0.2-7.5-0.7-11.2h197.8c0.2 3.7 0.3 7.4 0.3 11.2 0 50.1-13.3 99.3-38.2 142.7l-248.2 430.1-248.1-430.1c-24.9-43.4-38.1-92.6-38.3-142.7 0-3.8 0.2-7.5 0.3-11.2zm88.3-275.3c158.2 0 286.4 128.3 286.4 286.5q0 4.8-0.2 9.7h-197.7q0.5-4.8 0.5-9.7c0-49.2-39.8-89.1-89-89.1-49.2 0-89 39.9-89 89.1q0 4.9 0.5 9.7h-197.7q-0.2-4.9-0.2-9.7c0-158.2 128.2-286.5 286.4-286.5z"/>
		<path id="Path 5" class="s3" d="m882.6 2665.6c-0.1 50.1-13.3 99.3-38.2 142.7l-248.2 430.1-53.5-92.8 194.7-337.3c109.2-189.3 2.4-403.4-194.7-424.1 17.3-3.3 35.2-5.1 53.5-5.1 158.2 0 286.4 128.3 286.4 286.5z"/>
		<path id="Path 6" fill-rule="evenodd" class="s1" d="m324.7 2654.4c5.9-145 125.1-260.5 271.5-260.5v-0.1c146.5 0 265.7 115.6 271.5 260.6 0.1 3.7 0.2 7.4 0.2 11.1q0 0 0 0 0 0 0 0 0 0 0 0 0 1.5 0 3 0 3.4-0.2 6.8c-1.7 44.2-14 87.3-36 125.6l-235.5 408.1-235.4-408c-22-38.4-34.4-81.5-36.1-125.7q-0.2-4.8-0.2-9.7 0-1.4 0-2.7 0.1-4.3 0.3-8.5zm572.6 11.1c-0.1 52.7-14 104.4-40.2 150l-260.9 452.2-260.9-452.2c-25.5-44.4-39.4-94.7-40.2-145.9q0-2 0-4.1 0 0 0 0 0 0 0 0 0 0 0 0c0-166.1 135-301 301.1-301v-0.1c164.6 0 298.6 132.6 301 296.7q0.1 2.2 0.1 4.4zm-374.6-11.1c-0.5 3.7-0.9 7.4-0.9 11.1 0 3.4 0.3 6.6 0.7 9.8 4.7 36.6 35.8 64.6 73.7 64.6 37.9 0 68.9-28 73.7-64.6h-0.1c0.4-3.2 0.7-6.4 0.7-9.8q0 0 0-0.1c0-3.8-0.4-7.4-0.9-11h0.1c-5.3-35.9-36.1-63.2-73.5-63.2-37.5 0-68.2 27.3-73.5 63.2zm73.4 114.8c-57.1 0-103.7-46.6-103.7-103.7 0-57.1 46.6-103.6 103.7-103.6 57 0 103.5 46.4 103.7 103.3q0 0.2 0 0.3 0 0.1 0 0.2c-0.1 57-46.7 103.5-103.7 103.5z"/>
		<path id="Path 7" class="s4" d="m1905.3 2981.7c0 176.6-58.9 427.6-131.6 427.6-72.6 0-131.5-251-131.5-427.6 0-176.6 77.8-211.9 131.5-211.9 53.8 0 131.6 35.3 131.6 211.9z"/>
		<path id="Path 8" class="s1" d="m1684.3 3079.1c6.2 59.6 17.3 121.1 31.8 172.7 11.3 40.5 25 75 38 96.7 9.7 16.2 17.6 21.7 19.7 23.4 2.1-1.7 10-7.2 19.7-23.4 12.9-21.7 26.6-56.2 37.9-96.7 14.5-51.6 25.6-113.1 31.8-172.7h73.9c-6.3 65.9-18.5 133.6-35 192.5-12.5 44.4-27.1 83.6-45.7 114.6-18.5 30.9-43.3 59.8-82.6 59.8-39.3 0-64.2-28.9-82.8-59.8-18.5-31-33.2-70.2-45.6-114.6-16.5-58.9-28.7-126.6-35-192.5zm203.4-293.3c33.8 39.8 54.3 102.2 54.3 195.9 0 37.5-2.5 77.8-7.1 118.3h-74.1c5-40.9 7.8-81.6 7.8-118.3 0-83-18.4-126.5-36.9-148.5-18.6-21.9-39.1-26.7-57.9-26.7-18.9 0-39.4 4.8-58 26.7-18.6 22-36.9 65.5-36.9 148.5 0 36.7 2.8 77.4 7.8 118.3h-74.1c-4.6-40.5-7.1-80.8-7.1-118.3 0-93.7 20.5-156.1 54.3-195.9 33.7-39.9 79-52.7 114-52.7 34.9 0 80.2 12.8 113.9 52.7z"/>
		<path id="Path 9" class="s4" d="m2570.2 2981.7c0 176.6-58.9 427.6-131.5 427.6-72.7 0-131.6-251-131.6-427.6 0-176.6 77.8-211.9 131.6-211.9 53.8 0 131.5 35.3 131.5 211.9z"/>
		<path id="Path 10" class="s1" d="m2349.3 3079.1c6.1 59.6 17.2 121.1 31.7 172.7 11.4 40.5 25 75 38 96.7 9.7 16.2 17.6 21.7 19.7 23.4 2.1-1.7 10-7.2 19.7-23.4 13-21.7 26.6-56.2 37.9-96.7 14.5-51.6 25.6-113.1 31.8-172.7h73.9c-6.3 65.9-18.4 133.6-35 192.5-12.4 44.4-27.1 83.6-45.6 114.6-18.5 30.9-43.4 59.8-82.7 59.8-39.3 0-64.2-28.9-82.7-59.8-18.5-31-33.2-70.2-45.7-114.6-16.5-58.9-28.6-126.6-34.9-192.5zm203.3-293.3c33.8 39.8 54.3 102.2 54.3 195.9 0 37.5-2.5 77.8-7.1 118.3h-74c5-40.9 7.7-81.6 7.7-118.3 0-83-18.3-126.5-36.9-148.5-18.6-21.9-39-26.7-57.9-26.7-18.9 0-39.4 4.8-57.9 26.7-18.6 22-36.9 65.5-36.9 148.5 0 36.7 2.7 77.4 7.7 118.3h-74c-4.6-40.5-7.2-80.8-7.2-118.3 0-93.7 20.6-156.1 54.3-195.9 33.8-39.9 79.1-52.7 114-52.7 34.9 0 80.2 12.8 113.9 52.7z"/>
		<path id="Path 11" class="s5" d="m1103 2241.6c-152.9-88.3-340.9-264.8-304.5-327.8 36.3-62.9 283.1 11.6 436.1 99.9 152.9 88.3 144.6 173.3 117.7 219.9-26.9 46.6-96.3 96.3-249.3 8z"/>
		<path id="Path 12" class="s1" d="m1129.1 2001.5c-54.7-24.5-113.4-45.6-165.4-58.8-40.7-10.4-77.5-15.9-102.7-15.5-18.9 0.3-27.6 4.4-30.1 5.4 0.4 2.6 1.2 12.2 10.4 28.7 12.2 22.1 35.4 51.2 64.7 81.2 37.5 38.4 85.2 78.7 133.7 113.9l-36.9 64c-54-38.4-106.5-82.8-149.3-126.5-32.2-33-58.8-65.4-76.4-96.9-17.5-31.5-30.1-67.5-10.4-101.5 19.6-34 57.1-41.1 93.1-41.7 36.1-0.6 77.4 6.3 122.1 17.7 59.2 15.2 123.9 38.5 184.2 66zm152.3 322.8c-51.4 9.3-115.6-4.1-196.8-50.9-32.5-18.8-66.1-41.1-98.9-65.4l37-64.1c33 24.8 66.8 47.5 98.6 65.9 71.8 41.4 118.8 47.4 147.1 42.2 28.3-5.1 42.6-20.4 52-36.7 9.5-16.4 15.6-36.5 5.9-63.6-9.7-27-38.3-64.7-110.1-106.2-31.8-18.3-68.4-36.3-106.4-52.4l37-64.1c37.4 16.2 73.6 34.2 106.1 53 81.1 46.8 124.8 95.8 142.5 144.9 17.6 49.2 6.1 94.8-11.4 125.1-17.4 30.2-51.2 63-102.6 72.3z"/>
		<path id="Path 13" class="s5" d="m3109.4 1974.7c152.9 88.3 340.9 264.8 304.6 327.7-36.3 62.9-283.2-11.6-436.1-99.9-153-88.3-144.7-173.2-117.8-219.8 26.9-46.6 96.4-96.3 249.3-8z"/>
		<path id="Path 14" class="s1" d="m3083.3 2214.8c54.7 24.4 113.5 45.5 165.4 58.8 40.7 10.4 77.5 15.9 102.8 15.5 18.9-0.3 27.5-4.5 30.1-5.4-0.5-2.7-1.2-12.2-10.4-28.8-12.3-22-35.4-51.1-64.8-81.2-37.5-38.3-85.1-78.7-133.7-113.8l37-64c53.9 38.4 106.5 82.8 149.2 126.5 32.2 33 58.8 65.3 76.4 96.8 17.5 31.6 30.1 67.5 10.5 101.6-19.7 34-57.2 41.1-93.2 41.7-36.1 0.5-77.4-6.3-122-17.7-59.3-15.2-124-38.5-184.2-66zm-152.4-322.8c51.4-9.3 115.7 4.1 196.8 50.9 32.5 18.8 66.1 41.1 98.9 65.3l-37 64.1c-32.9-24.7-66.8-47.5-98.6-65.8-71.8-41.5-118.7-47.4-147-42.3-28.3 5.1-42.7 20.5-52.1 36.8-9.4 16.4-15.6 36.5-5.8 63.5 9.7 27.1 38.3 64.8 110.1 106.2 31.8 18.4 68.4 36.4 106.3 52.5l-37 64.1c-37.4-16.3-73.5-34.2-106-53-81.2-46.8-124.9-95.8-142.5-144.9-17.7-49.2-6.1-94.9 11.3-125.1 17.5-30.2 51.2-63 102.6-72.3z"/>
		<path id="Path 15" fill-rule="evenodd" class="s1" d="m3075.5 1173.3v1602.6c0 166.1-135.5 301.6-301.5 301.6h-1335.6c-166 0-301.5-135.5-301.5-301.6v-1602.6l969.3-969.4zm-1821.2 48.7v1554c0 103 81.1 184.1 184.1 184.1h1335.6c103 0 184-81.1 184-184.1v-1554l-851.8-851.8z"/>
		<path id="Path 16" class="s4" d="m3016.8 2776c0 134.5-108.3 242.8-242.8 242.8h-1335.5c-134.6 0-242.9-108.3-242.9-242.8z"/>
		<path id="Path 17" class="s6" d="m1650.9 2776c0 134.5 108.3 242.8 242.9 242.8h-455.3c-134.6 0-242.9-108.3-242.9-242.8z"/>
		<path id="Path 18" class="s7" d="m3016.8 2776c0 134.5-108.3 242.8-242.8 242.8h-455.3c134.5 0 242.8-108.3 242.8-242.8z"/>
		<path id="Path 19" class="s5" d="m2561.5 1197.6c131.7-228.1 268-187.4 455.3 0v1335.5h-1821.2v-1335.5c187.4-187.4 323.6-228.1 455.3 0 115.9-129.6 281.5-203.6 455.3-203.6 173.8 0 339.4 74 455.3 203.6z"/>
		<path id="Path 20" class="s8" d="m1457.9 1041.5c68.6 1.3 131.3 49.2 193 156.1v1335.5h-455.3v-1335.5c99.6-99.5 184.7-157.7 262.3-156.1z"/>
		<path id="Path 21" class="s9" d="m3016.8 1197.6v1335.5h-455.3v-1335.5c61.7-106.9 124.5-154.8 193-156.1 77.7-1.6 162.8 56.6 262.3 156.1z"/>
		<path id="Path 22" class="s10" d="m3016.8 1197.6c-187.3-187.4-323.6-228.1-455.3 0-115.9-129.6-281.5-203.6-455.3-203.6-173.8 0-339.4 74-455.3 203.6-131.7-228.1-267.9-187.4-455.3 0l910.6-910.6z"/>
		<path id="Path 23" class="s11" d="m2106.2 287l-455.3 910.6c-61.7-106.9-124.4-154.8-193-156.1-77.6-1.6-162.7 56.6-262.3 156.1z"/>
		<path id="Path 24" class="s12" d="m3016.8 1197.6c-99.5-99.5-184.6-157.7-262.3-156.1-68.5 1.3-131.3 49.2-193 156.1l-455.3-910.6z"/>
		<path id="Path 25" class="s13" d="m2313.3 494.1h-414.1l207-207.1z"/>
		<path id="Path 26" class="s14" d="m1195.6 2533.1h1821.2v242.9h-1821.2z"/>
		<path id="Path 27" class="s15" d="m2561.5 2533.1h455.3v242.9h-455.3z"/>
		<path id="Path 28" class="s16" d="m1195.6 2533.1h455.3v242.9h-455.3z"/>
		<path id="Path 29" class="s15" d="m3016.8 2518.4v29.4h-1821.2v-29.4zm0 242.9v29.3h-1821.1v-29.3z"/>
		<path id="Path 30" class="s9" d="m2558.9 1174.1c30.3-49.4 61.3-86.5 94.2-110.9 36.6-27 75.8-38.8 116.2-36.1 80.7 5.6 163.3 65.6 257.9 160.1l-20.8 20.8c-92.8-92.8-171.9-146.9-239.1-151.5-33.6-2.4-64.8 6.7-96.7 30.3-31.9 23.6-64.1 62.2-96.4 118.1l-10.1 17.6-13.5-15.1c-113.1-126.5-274.7-198.7-444.4-198.7-169.6 0-331.2 72.2-444.3 198.7l-13.6 15.1-10.1-17.6c-32.3-55.9-64.5-94.5-96.4-118.1-31.9-23.6-63.1-32.7-96.6-30.3-67.2 4.6-146.4 58.7-239.2 151.5l-20.8-20.8c94.6-94.5 177.2-154.5 257.9-160.1 40.4-2.7 79.7 9.1 116.2 36.1 32.9 24.4 63.9 61.5 94.3 110.9 117.8-123.8 281.1-194.8 452.6-194.8 171.5 0 334.8 71 452.7 194.8z"/>
		<path id="Path 31" class="s17" d="m1899.2 494.1l207-207.1-103.5 207.1z"/>
		<path id="Path 32" fill-rule="evenodd" class="s1" d="m3031.5 1191.5v1584.4c0 142.5-115.1 257.6-257.5 257.6h-1335.6c-142.4 0-257.5-115.1-257.5-257.6v-1584.4l925.3-925.3zm-1821.1 12.2v1572.3c0 126.6 101.4 228.1 228.1 228.1h1335.5c126.7 0 228.2-101.5 228.2-228.1v-1572.3l-895.9-895.9zm735 370.6v75.8c0 83.8-67.5 151.3-151.3 151.3-83.8 0-151.2-67.5-151.2-151.3v-75.8c0-83.8 67.4-151.3 151.2-151.3 83.8 0 151.3 67.5 151.3 151.3z"/>
		<circle id="Path 33" class="s18" cx="1833.3" cy="1531.4" r="48.8"/>
		<path id="Path 34" class="s1" d="m2569.6 1574.2v75.9c0 83.8-67.5 151.3-151.3 151.3-83.8 0-151.3-67.5-151.3-151.3v-75.9c0-83.8 67.5-151.2 151.3-151.2 83.8 0 151.3 67.4 151.3 151.2z"/>
		<path id="Path 35" class="s18" d="m2506.4 1531.4c0 27-21.9 48.9-48.9 48.9-26.9 0-48.8-21.9-48.8-48.9 0-26.9 21.9-48.8 48.8-48.8 27 0 48.9 21.9 48.9 48.8zm-60.2 355.3c39.2 0 70.9 31.7 70.9 70.9v80c0 226.9-184 410.9-410.9 410.9-226.9 0-410.8-184-410.8-410.9v-80c0-39.2 31.6-70.9 70.9-70.9z"/>
		<path id="Path 36" class="s19" d="m2446.1 1886.7c39.3 0 70.9 31.7 70.9 70.9v80c0 195.8-136.9 359.6-320.2 400.8 0 0 76.6-156.3-10.5-293.8 69.8-123.7 0-257.7 0-257.7l0.2-0.2z"/>
		<path id="Path 37" class="s1" d="m2446.2 1886.7c39.3 0 70.9 31.7 70.9 70.9v80c0 114.7-47 218.3-122.7 292.9 0 0 85.7-168.5-6.3-254.1 79.9-97.5 0-189.5 0-189.5v-0.2zm-621.8 0v0.2c0 0-80 92 0 189.5-92.1 85.6-6.3 254.1-6.3 254.1-75.8-74.6-122.8-178.2-122.8-292.9v-80c0-39.2 31.7-70.9 70.9-70.9zm621.8-14.7c47.1 0 85.6 38.5 85.6 85.6v80c0 234.9-190.7 425.5-425.6 425.5q-5.2 0-10.4-0.1v-29.4q5.2 0.2 10.4 0.2c219 0 396.2-177.2 396.2-396.2v-80c0-31.4-24.8-56.2-56.2-56.2h-350.4v-29.4zm-329.5 0v29.4h-350.4c-31.4 0-56.2 24.8-56.2 56.2v80c0 219 177.2 396.2 396.2 396.2q5.2 0 10.4-0.2v29.4q-5.2 0.1-10.4 0.1c-234.9 0-425.6-190.6-425.6-425.5v-80c0-47.1 38.4-85.6 85.6-85.6zm212.5-1871.9c98.3 0 168.6 82.9 178.5 172.4l57 513.2h-468.9v-117.4h337.7l-42.5-382.8c-4.8-42.8-27-68-61.8-68h-233.4v-117.4zm380.7 513c61 0 112 50.9 112 111.9 0 61-51 111.9-112 111.9h-614v-223.8zm-593.2-513v117.4h-233.3c-34.8 0-57.1 25.2-61.9 68l-42.5 382.8h337.7v117.4h-468.9l57-513.2c9.9-89.5 80.2-172.5 178.6-172.5zm0 513.1v223.8h-614.1c-61 0-111.9-50.9-111.9-111.9 0-61 50.9-111.9 111.9-111.9z"/>
		<path id="Path 38" class="s20" d="m1883.3 58.8h445.8c66.6 0 112.9 54 120.2 120.2l49.7 448h-785.6l49.7-448c7.4-66.2 53.6-120.2 120.2-120.2z"/>
		<path id="Path 39" class="s21" d="m2021.7 58.8c-66.6 0-112.9 54-120.2 120.2l-49.7 448h-138.4l49.7-448c7.4-66.2 53.6-120.2 120.2-120.2z"/>
		<path id="Path 40" class="s22" d="m2329.1 58.8c66.6 0 112.9 54 120.2 120.2l49.7 448h-222.9l-49.7-448c-7.3-66.2-53.6-120.2-120.2-120.2z"/>
		<path id="Path 41" class="s23" d="m1738.2 403h736l18.7 168.8h-773.4z"/>
		<path id="Path 42" class="s24" d="m1876.6 403l-18.7 168.8h-138.4l18.7-168.8z"/>
		<path id="Path 43" class="s25" d="m2474.2 403l18.7 168.8h-222.9l-18.7-168.8z"/>
		<path id="Path 44" class="s1" d="m2329.1 44.1c74.5 0 126.8 61.3 134.8 133.3l51.5 464.3h-419.6v-29.4h386.8l-47.9-431.7c-6.7-60.3-46.9-107.1-105.6-107.1h-233.3v-29.4zm-212.5 0v29.4h-233.3c-58.7 0-98.9 46.8-105.6 107.1l-48 431.7h386.9v29.4h-419.7l51.6-464.3c8-72 60.2-133.3 134.8-133.3z"/>
		<path id="Path 45" class="s20" d="m1502.6 571.8h1207.2c29.5 0 53.2 23.7 53.2 53.2 0 29.5-23.7 53.2-53.2 53.2h-1207.2c-29.5 0-53.2-23.7-53.2-53.2 0-29.5 23.7-53.2 53.2-53.2z"/>
		<path id="Path 46" class="s1" d="m2709.8 557.1c37.4 0 67.9 30.6 67.9 67.9 0 37.3-30.5 67.9-67.9 67.9h-614v-29.4h614c21.6 0 38.5-16.9 38.5-38.5 0-21.6-16.9-38.5-38.5-38.5h-614v-29.4zm-971.6-168.8h735.9v29.4h-735.9zm378.4 168.8v29.4h-614.1c-21.5 0-38.4 16.9-38.4 38.5 0 21.5 16.9 38.5 38.4 38.5h614.1v29.3h-614.1c-37.3 0-67.8-30.5-67.8-67.8 0-37.4 30.5-67.9 67.8-67.9zm-1301.6 456.2c8.5 8.4 13.1 19.8 13 31.7v1106.7c0.1 11.8-4.4 23.2-12.7 31.6-8.3 8.4-19.6 13.1-31.4 13.1-11.8 0-23.1-4.7-31.4-13.1-8.2-8.4-12.8-19.8-12.6-31.6v-1106.7c-0.4-24.3 19-44.3 43.3-44.6 11.9-0.2 23.4 4.4 31.8 12.9z"/>
		<path id="Path 47" class="s2" d="m783.9 1598.4l-667.9-276.7 667.9-276.6z"/>
		<path id="Path 48" class="s1" d="m541.6 1193.1l-310.5 128.6 310.5 128.6v95.4l-540.8-224 540.8-223.9zm286.4 471.2l-307.3-127.3v-95.4l219.1 90.8v-421.5l-219.1 90.8v-95.4l246.3-102 61-25.3zm3757.6 31.9l9.1 117.1c0 0-539.1 43.1-1051.1-252.5-82-47.4-185.2-19.7-232.6 62.3-47.3 82.1-19.7 185.3 62.3 232.6 512 295.6 744.2 784 744.2 784l-105.9 50.7c0 0-220.3-457.7-697-732.9-137-79.1-184.4-256.1-105.3-393.1 79.1-137 256-184.4 393.1-105.3 476.7 275.2 983.2 237.1 983.2 237.1zm-844.9 710.2l-179.3 310.5c-28.4 49.2-93.5 66.7-142.7 38.2l-172.1-99.3c-49.2-28.4-66.7-93.5-38.2-142.8l179.2-310.4 101.8 58.7-172.8 299.3 149.6 86.3 172.7-299.2zm122.3-420.8c49.3 28.4 66.7 93.5 38.3 142.8l-179.3 310.4-101.7-58.7 172.7-299.2-149.5-86.4-172.8 299.2-101.7-58.7 179.2-310.5c28.5-49.2 93.5-66.7 142.8-38.2z"/>
		<path id="Path 49" class="s26" d="m3833.6 2036.5c21.9 12.7 29.4 40.6 16.7 62.5l-339.7 588.5c-12.7 22-40.6 29.4-62.6 16.8l-172-99.4c-22-12.6-29.4-40.5-16.8-62.5l339.8-588.5c12.7-21.9 40.6-29.4 62.5-16.7z"/>
		<path id="Path 50" class="s27" d="m3833.6 2036.5c21.9 12.7 29.4 40.6 16.7 62.5l-161.4 279.5c-54.9-76.8-120.8-157.6-198.6-236.2l108.7-188.4c12.7-21.9 40.6-29.4 62.5-16.7zm0 0c22 12.6 29.5 40.5 16.8 62.5l-339.7 588.5c-12.7 21.9-40.6 29.4-62.6 16.7l-35.4-20.4 385.6-667.8z"/>
		<path id="Path 51" class="s1" d="m3702.5 2384.4l-179.2 310.4c-16.6 28.8-53.8 38.8-82.6 22.2l-172-99.3c-28.8-16.7-38.8-53.8-22.2-82.6l179.3-310.5 25.4 14.7-179.2 310.4c-8.8 15.2-3.8 33.8 11.4 42.5l172 99.3c15.1 8.8 33.7 3.8 42.4-11.3l179.3-310.5zm108.4-361l-385.6 667.8-25.4-14.7 385.5-667.8zm30 0.4c28.8 16.6 38.8 53.8 22.2 82.6l-179.3 310.4-25.4-14.7 179.2-310.4c8.8-15.1 3.8-33.7-11.3-42.5l-172.1-99.3c-15.1-8.7-33.7-3.7-42.4 11.4l-179.3 310.4-25.4-14.6 179.2-310.5c16.6-28.8 53.8-38.7 82.6-22.1zm1028.5 477.7c-3 5.4-6.1 10.7-9.2 16.1-93.4 161.9-213.5 288.7-337.8 364.5-124.3 75.9-260.7 103.2-370.1 40-109.4-63.2-154-194.9-150.4-340.5 3.5-145.6 53.3-313 146.7-474.8 3.1-5.4 6.2-10.8 9.4-16l101.8 58.7c-3.2 5.3-6.3 10.6-9.4 16-84.8 146.9-128.2 298.5-131.1 418.9-2.9 120.5 32.7 201.9 91.7 236 59 34 147.4 24.2 250.2-38.5 102.9-62.8 212.5-176.1 297.3-323 3.1-5.4 6.2-10.8 9.2-16.2zm-12.9-799.2c109.4 63.2 154 195 150.5 340.5-3.6 145.6-53.3 313-146.8 474.9-3.1 5.3-6.2 10.7-9.4 16l-101.7-58.8c3.2-5.3 6.3-10.6 9.4-16 84.8-146.8 128.1-298.4 131-418.9 3-120.5-32.7-201.9-91.7-236-59-34-147.3-24.2-250.2 38.6-102.9 62.7-212.5 176.1-297.3 323-3.1 5.3-6.2 10.7-9.1 16.1l-101.8-58.8c3-5.4 6.1-10.7 9.2-16.1 93.4-161.9 213.5-288.7 337.8-364.5 124.3-75.9 260.7-103.2 370.1-40z"/>
		<path id="Path 52" class="s28" d="m4064.6 2665.1c0 0-226.3-473.1-720.6-758.5-109.6-63.2-147.1-203.3-83.8-312.8 63.2-109.6 203.3-147.1 312.8-83.8 494.3 285.3 1017.1 244.8 1017.1 244.8z"/>
		<path id="Path 53" class="s18" d="m4590.1 1754.8l-318.7 552.1c0 0-308.3-331.1-802.6-616.5-82.4-47.6-116.5-107.3-92.7-195.8 62.3-24 134.5-20.6 196.9 15.4 494.3 285.4 1017.1 244.8 1017.1 244.8z"/>
		<path id="Path 54" class="s29" d="m3285.1 1558.8c-35.6 101.8 4.9 217.7 101.7 273.6 494.3 285.4 752.3 703.6 752.3 703.6l-74.5 129.1c0 0-226.3-473.1-720.6-758.5-109.6-63.2-147.1-203.3-83.8-312.8 7.3-12.7 15.7-24.4 24.9-35z"/>
		<path id="Path 55" class="s30" d="m3792.1 1616.2c-50.9 64.4-97.4 132.9-138.8 204.6-41.4 71.6-77.4 146.1-107.8 222.4-61.4-48.2-128.5-94.4-201.5-136.6-109.6-63.2-147.1-203.3-83.8-312.8 63.2-109.6 203.3-147.1 312.8-83.8 73 42.1 146.6 77.1 219.1 106.2z"/>
		<path id="Path 56" class="s31" d="m3285.1 1558.8c-35.6 101.8 4.9 217.7 101.7 273.6 70.2 40.5 135.6 83.7 196.2 128q-19.9 41-37.5 82.8c-61.4-48.2-128.5-94.4-201.5-136.6-109.6-63.2-147.1-203.3-83.8-312.8 7.3-12.7 15.7-24.4 24.9-35z"/>
		<path id="Path 57" class="s32" d="m3792.1 1616.2c-48 60.9-92 125.4-131.5 192.8-60.3-39.7-124.2-79.6-191.8-118.6-82.4-47.5-116.5-107.3-92.7-195.8 62.3-24 134.5-20.6 196.9 15.3 73 42.2 146.6 77.2 219.1 106.3z"/>
		<path id="Path 58" class="s1" d="m4589 1740.1l2.3 29.3c0 0-526.9 41.2-1025.6-246.7-102.7-59.3-233.6-24.3-292.8 78.4-59.3 102.7-24.2 233.5 78.4 292.8 498.7 287.9 726.5 764.9 726.5 764.9l-26.5 12.6c0 0-224.7-469.2-714.7-752.1-116.4-67.2-156.4-216.5-89.2-332.9 67.2-116.4 216.5-156.4 332.9-89.2 489.9 282.9 1008.7 242.9 1008.7 242.9zm-807.8-133.8l23 18.2c-50.7 64.1-97 132.3-138.2 203.6-41.1 71.3-77 145.4-107.1 221.2l-27.3-10.8c30.6-77.2 67.1-152.6 109-225.1 41.9-72.5 89-141.9 140.6-207.1zm-185.4 64l-14.7 25.5-130.3-75.3 14.6-25.4zm-43.4 75.2l-14.6 25.4-130.4-75.2 14.7-25.5zm-43.4 75.2l-14.7 25.5-130.4-75.3 14.7-25.4z"/>
		<path id="Path 59" class="s30" d="m4827.2 1753.1c80.9 46.7 124.4 150.4 121.1 288.2-3.4 137.9-53.3 298.7-138.9 446.9-178.3 308.8-459.3 480.3-627.8 383-168.4-97.2-160.4-426.3 17.9-735.1 178.2-308.8 459.3-480.2 627.7-383z"/>
		<path id="Path 60" class="s1" d="m4831.2 2479.4c-2.9 5.4-6 10.8-9.1 16.2-90.2 156.2-206.4 278-322.6 348.9-116.3 71-234.7 91.7-325.2 39.4-90.5-52.2-131.7-165.1-128.4-301.3 3.3-136.1 50.7-297.6 140.9-453.8 3.1-5.4 6.2-10.8 9.4-16l25.4 14.7c-3.2 5.2-6.3 10.6-9.4 15.9-88.1 152.6-133.8 310-137 439.9-3.1 129.9 35.9 230.2 113.8 275.2 77.9 45 184.2 28.6 295.2-39.1 110.9-67.7 224.4-186 312.4-338.5 3.2-5.4 6.2-10.7 9.2-16.2z"/>
		<path id="Path 61" class="s26" d="m4773.4 1846.3c58.5 33.8 86.2 115.3 77.2 226.5-9.1 111.3-54.3 243.2-125.6 366.7-71.3 123.6-163 228.6-254.8 292.1-91.8 63.5-176.2 80.2-234.7 46.4-121.8-70.3-100.2-335.9 48.3-593.2 148.6-257.3 367.7-408.8 489.6-338.5z"/>
		<path id="Path 62" class="s27" d="m4651.6 1837.6c95.7 90 75.1 318-48.1 531.8-123.5 213.6-310.7 345.6-436.6 307.6-31.9-121.5 13.5-312.9 116.9-492.2 103.6-179.1 246.6-314.1 367.8-347.2z"/>
		<path id="Path 63" class="s18" d="m4380.9 2043.7l193 148.1-138.9 240.7-224.9-93.1c19.9-52.1 44.8-104.3 73.7-154.6 29.2-50.2 61.9-97.9 97.1-141.1z"/>
		<path id="Path 64" class="s33" d="m4504.4 2312.2l-69.4 120.3-224.9-93.1c19.9-52.1 44.8-104.3 73.7-154.6z"/>
		<path id="Path 65" class="s34" d="m4465.8 2379l-30.8 53.5-224.9-93.1c9-23.1 19-46.1 29.9-69.1z"/>
		<path id="Path 66" class="s1" d="m4440.6 2418.9l-11.3 27.2-225-93.3 11.2-27.1zm306.3 11.7c-3 5.5-6 10.8-9.1 16.2-75.2 130.3-168.2 233.9-259.2 296.8-90.9 62.9-182.3 86.4-250.4 47.1-68.2-39.4-93.5-130.2-84.5-240.4 9-110.3 52.3-242.6 127.5-372.9 3.1-5.4 6.3-10.6 9.4-15.9l25.5 14.6c-3.2 5.3-6.4 10.6-9.5 16-73.3 127-115.1 256.1-123.6 360.5-8.6 104.5 16.2 181.7 69.9 212.6 53.6 31 132.8 13.9 219-45.7 86.2-59.6 177.1-160.4 250.4-287.4 3.1-5.4 6.1-10.8 9.1-16.2zm-356.6-399.5l193.3 148.3-19.1 24.8-193.3-148.3z"/>
		<path id="Path 67" class="s18" d="m4573.9 2191.8c12.6 7.3 17.4 27 13.2 54.7-4.1 27.7-16.8 61.2-35.2 93.1-18.4 31.9-41.1 59.6-63 77-22 17.5-41.4 23.2-54 15.9-26.2-15.1-16.3-81.3 22-147.8 38.4-66.4 90.8-108 117-92.9z"/>
		<path id="Path 68" class="s1" d="m4573.5 2330.6c-2.8 5.4-5.7 10.9-8.9 16.3-20 34.6-43.4 62.8-66.6 81.2-11.6 9.2-23.1 16.1-34.8 19.7-11.8 3.5-24.7 3.7-35.6-2.6-10.9-6.3-17.2-17.6-20-29.5-2.7-12-2.6-25.4-0.4-40 4.3-29.3 17-63.7 37-98.3 3.2-5.5 6.4-10.7 9.7-15.8l25.5 14.7c-3.3 5.1-6.6 10.3-9.8 15.8-18.4 31.9-29.7 63.7-33.4 87.9-1.7 12.1-1.5 22.3 0 29 1.6 6.8 3.9 9.5 6.1 10.8 2.2 1.2 5.7 1.9 12.3-0.1 6.6-2.1 15.6-7 25.1-14.6 19.2-15.2 41.1-41 59.5-72.9 3.1-5.4 6-10.9 8.8-16.3zm261-590.3c90.5 52.3 131.8 165.2 128.5 301.4-3.3 136.1-50.7 297.6-140.9 453.8-3.1 5.4-6.2 10.8-9.4 16l-25.4-14.7c3.2-5.2 6.3-10.6 9.4-15.9 88-152.6 133.8-310.1 136.9-439.9 3.2-129.9-35.8-230.2-113.7-275.2-77.9-45-184.3-28.6-295.2 39.1-110.9 67.6-224.4 186-312.5 338.5-3.1 5.4-6.2 10.7-9.1 16.2l-25.5-14.7c3-5.4 6.1-10.8 9.2-16.2 90.2-156.2 206.3-278 322.6-348.9 116.3-71 234.6-91.7 325.1-39.5zm-53.8 93.3c68.2 39.3 93.5 130.2 84.5 240.4-9 110.2-52.3 242.6-127.5 372.8-3.1 5.4-6.3 10.7-9.4 16l-25.5-14.7c3.2-5.3 6.4-10.6 9.5-16 73.3-127 115.1-256 123.6-360.5 8.5-104.5-16.2-181.6-69.9-212.6-53.6-31-132.8-13.8-219 45.8-86.2 59.6-177.1 160.3-250.4 287.3-3.2 5.4-6.1 10.8-9.1 16.2l-25.5-14.7q4.5-8.1 9.1-16.2c75.2-130.2 168.2-233.9 259.2-296.8 90.9-62.9 182.3-86.4 250.4-47zm-199.5 345.5c10.9 6.3 17.3 17.5 20 29.5 2.8 12 2.6 25.3 0.4 40-4.3 29.2-17 63.7-37 98.3-3.1 5.4-6.4 10.7-9.7 15.8l-25.5-14.7c3.3-5.1 6.6-10.3 9.8-15.8 18.4-31.9 29.8-63.7 33.4-87.9 1.8-12.1 1.6-22.3 0-29.1-1.6-6.7-3.9-9.4-6.1-10.7-2.2-1.3-5.6-1.9-12.3 0.1-6.6 2-15.5 6.9-25.1 14.6-19.2 15.2-41.1 41-59.5 72.8-3.1 5.5-6 11-8.7 16.4l-25.5-14.7c2.8-5.4 5.7-10.9 8.8-16.3 20-34.6 43.5-62.8 66.6-81.2 11.6-9.3 23.1-16.1 34.9-19.7 11.7-3.6 24.6-3.7 35.5 2.6z"/>
	</g>
</svg>