<svg version="1.2" xmlns="http://www.w3.org/2000/svg" viewBox="0 0 6746 5735" width="450" height="383">
	<title>pencil100_39-eps</title>
	<defs>
		<clipPath clipPathUnits="userSpaceOnUse" id="cp1">
			<path d="m0 0h6746v5735h-6746z"/>
		</clipPath>
	</defs>
	<style>
		.s0 { fill: #cccccc } 
		.s1 { fill: #ff7182 } 
		.s2 { fill: #1a1a1a } 
		.s3 { fill: #f9c923 } 
		.s4 { fill: #ffa0a0 } 
		.s5 { fill: #f03663 } 
		.s6 { fill: #ffeb61 } 
		.s7 { fill: #efa914 } 
		.s8 { fill: #ffde98 } 
		.s9 { fill: #fff6c1 } 
		.s10 { fill: #f8bf70 } 
		.s11 { fill: #5f5f5f } 
		.s12 { fill: #92deda } 
		.s13 { fill: #47aab0 } 
		.s14 { fill: #c0faf1 } 
		.s15 { fill: #989898 } 
		.s16 { fill: #ff8096 } 
		.s17 { fill: #ffffff } 
		.s18 { fill: #b9dae9 } 
		.s19 { fill: #565656 } 
		.s20 { fill: #7a7a7a } 
		.s21 { fill: #9d9d9d } 
		.s22 { fill: #ffd140 } 
		.s23 { fill: #ffac1a } 
		.s24 { fill: #f77800 } 
		.s25 { fill: #ffdc5a } 
		.s26 { fill: #ffc2a7 } 
		.s27 { fill: #ff916f } 
		.s28 { fill: #ffe5c9 } 
		.s29 { fill: #666666 } 
		.s30 { fill: #b9e1ed } 
		.s31 { fill: #ff899e } 
		.s32 { fill: #85abc7 } 
		.s33 { fill: #f4638f } 
		.s34 { fill: #ffb9be } 
		.s35 { fill: #2d81b8 } 
		.s36 { fill: #ffebb7 } 
		.s37 { fill: #f3c382 } 
		.s38 { fill: #246996 } 
	</style>
	<g id="Page 1" clip-path="url(#cp1)">
		<path id="Path 2" class="s0" d="m4216.9 4436.8c0 45.6-72.6 89.4-201.8 121.7-129.2 32.3-304.3 50.4-487 50.4-380.4 0-688.8-77-688.8-172.1 0-95.2 308.4-172.2 688.8-172.2 182.7 0 357.8 18.1 487 50.4 129.2 32.3 201.8 76.1 201.8 121.8zm-1889.8 0c0 59.4-192.8 107.6-430.7 107.6-114.2 0-223.7-11.3-304.5-31.5-80.7-20.2-126.1-47.6-126.1-76.1 0-28.6 45.4-56 126.1-76.2 80.8-20.2 190.3-31.5 304.5-31.5 237.9 0 430.7 48.2 430.7 107.7z"/>
		<path id="Path 3" class="s1" d="m3327.2 3986.2c0 176.6-58.9 427.6-131.6 427.6-72.6 0-131.5-251-131.5-427.6 0-176.6 77.7-211.9 131.5-211.9 53.8 0 131.6 35.3 131.6 211.9z"/>
		<path id="Path 4" class="s2" d="m3106.2 4083.6c6.2 59.6 17.3 121.1 31.7 172.7 11.4 40.5 25.1 75 38 96.7 9.7 16.2 17.6 21.7 19.7 23.4 2.1-1.7 10-7.2 19.7-23.4 13-21.7 26.6-56.2 38-96.7 14.5-51.6 25.6-113.1 31.7-172.7h73.9c-6.3 65.9-18.4 133.6-34.9 192.5-12.5 44.4-27.2 83.6-45.7 114.6-18.5 30.9-43.4 59.8-82.7 59.8-39.3 0-64.2-28.9-82.7-59.8-18.5-31-33.2-70.2-45.6-114.5-16.6-59-28.7-126.7-35-192.6zm203.4-293.3c33.7 39.8 54.3 102.2 54.3 195.9 0 37.5-2.6 77.8-7.2 118.3h-74c5-40.9 7.7-81.6 7.7-118.3 0-82.9-18.3-126.5-36.9-148.5-18.6-21.9-39-26.7-57.9-26.7-18.8 0-39.3 4.8-57.9 26.7-18.6 22-36.9 65.6-36.9 148.5 0 36.7 2.7 77.4 7.7 118.3h-74c-4.6-40.5-7.1-80.8-7.1-118.3 0-93.7 20.5-156.1 54.3-195.9 33.7-39.9 79-52.7 113.9-52.7 34.9 0 80.2 12.8 114 52.7z"/>
		<path id="Path 5" class="s1" d="m3992.1 3986.2c0 176.6-58.9 427.6-131.6 427.6-72.6 0-131.5-251-131.5-427.6 0-176.6 77.8-211.9 131.5-211.9 53.8 0 131.6 35.3 131.6 211.9z"/>
		<path id="Path 6" class="s2" d="m3771.1 4083.6c6.2 59.6 17.3 121.1 31.8 172.7 11.3 40.5 25 75 38 96.7 9.7 16.2 17.6 21.7 19.7 23.4 2-1.7 9.9-7.2 19.7-23.4 12.9-21.7 26.6-56.2 37.9-96.7 14.5-51.6 25.6-113.1 31.8-172.7h73.9c-6.3 65.9-18.5 133.6-35 192.5-12.5 44.4-27.1 83.6-45.7 114.6-18.5 30.9-43.3 59.8-82.6 59.8-39.3 0-64.2-28.9-82.8-59.8-18.5-31-33.2-70.2-45.6-114.5-16.5-59-28.7-126.7-35-192.6zm203.4-293.3c33.8 39.8 54.3 102.2 54.3 195.9 0 37.5-2.5 77.8-7.1 118.3h-74.1c5-40.9 7.8-81.6 7.8-118.3 0-82.9-18.4-126.5-36.9-148.5-18.6-21.9-39.1-26.7-57.9-26.7-18.9 0-39.4 4.8-58 26.7-18.6 22-36.9 65.6-36.9 148.5 0 36.7 2.8 77.4 7.8 118.3h-74.1c-4.6-40.5-7.1-80.8-7.1-118.3 0-93.7 20.5-156.1 54.3-195.9 33.7-39.9 79-52.7 114-52.7 34.9 0 80.2 12.8 113.9 52.7z"/>
		<path id="Path 7" class="s3" d="m2524.9 3246.1c-152.9-88.3-340.9-264.8-304.6-327.7 36.3-63 283.2 11.6 436.1 99.9 153 88.2 144.7 173.2 117.8 219.8-26.9 46.6-96.4 96.3-249.3 8z"/>
		<path id="Path 8" class="s2" d="m2551 3006c-54.7-24.5-113.5-45.6-165.4-58.8-40.8-10.4-77.5-15.9-102.8-15.5-18.9 0.3-27.5 4.4-30.1 5.4 0.5 2.6 1.2 12.2 10.4 28.7 12.3 22.1 35.4 51.2 64.8 81.2 37.5 38.4 85.1 78.8 133.7 113.9l-37 64c-53.9-38.4-106.5-82.8-149.2-126.5-32.2-33-58.8-65.3-76.4-96.9-17.5-31.5-30.1-67.5-10.5-101.5 19.7-34 57.1-41.1 93.2-41.7 36.1-0.6 77.3 6.3 122 17.7 59.3 15.2 124 38.5 184.2 66zm152.4 322.8c-51.4 9.3-115.7-4.1-196.8-50.9-32.5-18.8-66.1-41.1-98.9-65.3l37-64.2c32.9 24.8 66.8 47.5 98.6 65.9 71.8 41.5 118.7 47.4 147 42.3 28.3-5.2 42.7-20.5 52.1-36.8 9.4-16.4 15.5-36.5 5.8-63.6-9.7-27-38.3-64.7-110.1-106.1-31.8-18.4-68.4-36.4-106.3-52.5l37-64.1c37.4 16.2 73.5 34.2 106 53 81.2 46.8 124.9 95.8 142.5 144.9 17.7 49.2 6.1 94.8-11.3 125.1-17.5 30.2-51.2 63-102.6 72.3z"/>
		<path id="Path 9" class="s3" d="m4564.7 2992c124.9 124.9 260.8 344 209.4 395.4-51.4 51.4-270.5-84.5-395.4-209.4-124.9-124.8-94.8-204.8-56.8-242.8 38-38 118-68.1 242.8 56.8z"/>
		<path id="Path 10" class="s2" d="m4477.4 3217.2c46.5 37.7 97.8 73.3 144.5 99.6 36.7 20.6 70.8 35.4 95.3 41.5 18.3 4.6 27.8 2.9 30.4 2.6 0.3-2.7 2-12.1-2.6-30.4-6.1-24.5-20.9-58.6-41.5-95.2-26.3-46.8-61.9-98.1-99.7-144.6l52.3-52.3c42.1 51.1 81.4 107.5 111.4 160.9 22.6 40.2 39.9 78.3 48.7 113.3 8.8 34.9 11.7 73-16.1 100.8-27.8 27.7-65.9 24.9-100.8 16.1-35-8.8-73.1-26.1-113.3-48.7-53.3-29.9-109.8-69.3-160.9-111.4zm-63.6-351.2c52.1 4.3 110.7 33.9 176.9 100.1 26.6 26.5 53.3 56.8 78.7 88.7l-52.4 52.4c-25.4-32.5-52.2-63.2-78.2-89.2-58.6-58.6-102.4-76.5-131.1-78.9-28.6-2.3-46.4 8.8-59.8 22.1-13.3 13.3-24.5 31.2-22.1 59.8 2.4 28.7 20.3 72.5 78.9 131.1 26 26 56.7 52.8 89.1 78.2l-52.3 52.4c-31.9-25.4-62.2-52.1-88.7-78.7-66.3-66.2-95.8-124.8-100.1-176.9-4.4-52 18.6-93.1 43.3-117.8 24.7-24.7 65.8-47.6 117.8-43.3z"/>
		<path id="Path 11" fill-rule="evenodd" class="s2" d="m4497.4 2133.7v1602.7c0 166.1-135.5 301.6-301.6 301.6h-1335.5c-166.1 0-301.6-135.5-301.6-301.6v-1602.7l969.4-969.3zm-1821.2 48.6v1554.1c0 103 81.1 184.1 184.1 184.1h1335.5c103 0 184.1-81.1 184.1-184.1v-1554.1l-851.9-851.8z"/>
		<path id="Path 12" class="s1" d="m4438.6 3736.4c0 134.5-108.3 242.8-242.8 242.8h-1335.5c-134.5 0-242.8-108.3-242.8-242.8z"/>
		<path id="Path 13" class="s4" d="m3072.8 3736.4c0 134.5 108.3 242.8 242.8 242.8h-455.3c-134.5 0-242.8-108.3-242.8-242.8z"/>
		<path id="Path 14" class="s5" d="m4438.6 3736.4c0 134.5-108.3 242.8-242.8 242.8h-455.3c134.5 0 242.9-108.3 242.9-242.8z"/>
		<path id="Path 15" class="s3" d="m3983.4 2158c131.6-228 267.9-187.3 455.2 0v1335.6h-1821.1v-1335.6c187.3-187.3 323.6-228 455.3 0 115.8-129.5 281.4-203.6 455.3-203.6 173.8 0 339.4 74.1 455.3 203.6z"/>
		<path id="Path 16" class="s6" d="m2879.8 2001.9c68.5 1.4 131.2 49.2 193 156.1v1335.6h-455.3v-1335.6c99.5-99.5 184.6-157.6 262.3-156.1z"/>
		<path id="Path 17" class="s7" d="m4438.6 2158v1335.6h-455.2v-1335.6c61.7-106.9 124.4-154.7 192.9-156.1 77.7-1.5 162.8 56.6 262.3 156.1z"/>
		<path id="Path 18" class="s8" d="m4438.6 2158c-187.3-187.3-323.6-228-455.2 0-115.9-129.5-281.5-203.6-455.3-203.6-173.9 0-339.5 74.1-455.3 203.6-131.7-228-268-187.3-455.3 0l910.6-910.5z"/>
		<path id="Path 19" class="s9" d="m3528.1 1247.5l-455.3 910.5c-61.8-106.9-124.5-154.7-193-156.1-77.7-1.5-162.8 56.6-262.3 156.1z"/>
		<path id="Path 20" class="s10" d="m4437.6 2158c-99.5-99.5-184.6-157.6-262.3-156.1-68.5 1.4-131.2 49.2-192.9 156.1l-455.3-910.5z"/>
		<path id="Path 21" class="s11" d="m3735.1 1454.5h-414.1l207.1-207z"/>
		<path id="Path 22" class="s12" d="m2617.5 3493.6h1821.1v242.8h-1821.1z"/>
		<path id="Path 23" class="s13" d="m3983.4 3493.6h455.2v242.8h-455.2z"/>
		<path id="Path 24" class="s14" d="m2617.5 3493.6h455.3v242.8h-455.3z"/>
		<path id="Path 25" class="s13" d="m4438.6 3478.9v29.4h-1821.1v-29.4zm0 242.8v29.4h-1821.2v-29.4z"/>
		<path id="Path 26" class="s7" d="m3980.7 2134.6c30.4-49.5 61.4-86.6 94.3-110.9 36.5-27.1 75.8-38.9 116.1-36.1 80.7 5.6 163.4 65.5 257.9 160.1l-20.7 20.7c-92.8-92.8-172-146.9-239.2-151.5-33.6-2.3-64.8 6.8-96.7 30.4-31.9 23.6-64.1 62.2-96.3 118.1l-10.2 17.5-13.5-15.1c-113.1-126.4-274.7-198.7-444.4-198.7-169.6 0-331.2 72.3-444.3 198.7l-13.5 15.1-10.2-17.5c-32.2-55.9-64.4-94.5-96.3-118.1-31.9-23.6-63.1-32.7-96.7-30.4-67.2 4.6-146.4 58.7-239.1 151.5l-20.8-20.7c94.5-94.6 177.2-154.5 257.9-160.1 40.3-2.8 79.6 9 116.2 36.1 32.9 24.3 63.9 61.4 94.2 110.9 117.9-123.9 281.1-194.8 452.6-194.8 171.6 0 334.8 70.9 452.7 194.8z"/>
		<path id="Path 27" class="s15" d="m3321 1454.5l207.1-207-103.6 207z"/>
		<path id="Path 28" fill-rule="evenodd" class="s2" d="m4453.3 2152v1584.4c0 142.4-115.1 257.5-257.5 257.5h-1335.5c-142.4 0-257.5-115.1-257.5-257.5v-1584.4l925.3-925.3zm-1821.2 12.2v1572.2c0 126.7 101.5 228.2 228.1 228.2h1335.6c126.6 0 228.1-101.5 228.1-228.2v-1572.2l-895.9-896z"/>
		<path id="Path 29" class="s16" d="m4069.7 2771c0 22.8-16.2 44.7-45 60.8-28.8 16.1-67.8 25.2-108.5 25.2-40.8 0-79.8-9.1-108.6-25.2-28.8-16.1-45-38-45-60.8 0-47.5 68.8-86 153.6-86 84.7 0 153.5 38.5 153.5 86zm-776.2 0c0 22.8-16.1 44.7-44.9 60.8-28.8 16.1-67.9 25.2-108.6 25.2-40.7 0-79.8-9.1-108.6-25.2-28.8-16.1-44.9-38-44.9-60.8 0-47.5 68.7-86 153.5-86 84.8 0 153.5 38.5 153.5 86z"/>
		<path id="Path 30" class="s2" d="m3057.9 2622.5c0-56.4 30.2-108.6 79-136.8 48.9-28.2 109.2-28.2 158.1 0 48.8 28.2 79 80.4 79 136.8h-58.8c0-35.5-18.8-68.2-49.6-86-30.8-17.7-68.5-17.7-99.3 0-30.7 17.8-49.6 50.5-49.6 86zm624.2 0c0-56.4 30.2-108.6 79-136.8 48.9-28.2 109.2-28.2 158 0 48.9 28.2 79.1 80.4 79.1 136.8h-58.8c0-35.5-18.9-68.2-49.6-86-30.8-17.7-68.6-17.7-99.3 0-30.8 17.8-49.7 50.5-49.7 86z"/>
		<path id="Path 31" class="s17" d="m3748.8 2829c25.5 0 46 20.5 46 46v52c0 147.3-119.4 266.7-266.7 266.7-147.3 0-266.8-119.4-266.8-266.7v-52c0-25.5 20.6-46 46.1-46z"/>
		<path id="Path 32" class="s18" d="m3748.7 2829c25.5 0 46 20.5 46 46v52c0 127.1-88.9 233.4-207.9 260.2 0 0 49.7-101.5-6.8-190.8 45.3-80.3 0-167.3 0-167.3l0.2-0.1z"/>
		<path id="Path 33" class="s2" d="m3748.8 2829c25.5 0 46.1 20.5 46.1 46v52c0 74.4-30.5 141.7-79.7 190.1 0 0 55.7-109.4-4.1-164.9 51.9-63.4 0-123.1 0-123.1v-0.1zm-403.7 0v0.1c0 0-51.9 59.7 0 123-59.8 55.6-4.1 165-4.1 165-49.2-48.4-79.7-115.7-79.7-190.2v-51.9c0-25.5 20.5-46 46-46zm403.7-14.7c33.4 0 60.7 27.3 60.7 60.7v52c0 155.2-126.2 281.4-281.4 281.4-3.5 0-7-0.2-10.5-0.3v-29.4c3.5 0.2 7 0.3 10.5 0.3 139.4 0 252-112.7 252-252v-52c0-17.6-13.7-31.3-31.3-31.3h-231.2v-29.4zm-210.2 0v29.4h-231.2c-17.6 0-31.3 13.7-31.3 31.3v52c0 139.3 112.6 252 252 252 3.5 0 7-0.1 10.5-0.3v29.4c-3.5 0.1-7 0.3-10.5 0.3-155.2 0-281.4-126.2-281.4-281.4v-52c0-33.4 27.3-60.7 60.7-60.7zm790.9-1516.8l-801.3 352-10.4-4.6v-110.1l10.4 4.6 550.7-241.9-550.7-241.8-10.4 4.6v-110.2l10.4-4.5zm-408.6 0.8l19.7 17.5v322.6l-19.6 17.5c-94 84-238.7 126.6-392.9 126.8q-5.2 0-10.4-0.1v-117.5q5.2 0.1 10.4 0.1c119.9-0.1 229.3-35.4 295-83.6v-208.9c-65.8-48.1-175.2-83.4-295-83.4q-5.2 0-10.4 0.1v-117.5q5.2-0.1 10.4-0.1c154.2 0.1 298.8 42.7 392.8 126.5zm-382.3-348.2v110.1l-10.5-4.6-550.6 241.9 550.6 241.8 10.5-4.6v110.1l-10.5 4.6-801.3-351.9 738.7-324.5 62.6-27.5zm0 221.8v117.5q-5.2-0.1-10.5-0.1c-119.9 0.1-229.3 35.4-295 83.6v208.8c65.8 48.3 175.2 83.5 295.1 83.5q5.2 0 10.4-0.1v117.5c-3.4 0-6.9 0.1-10.4 0.1-154.2-0.1-298.8-42.7-392.9-126.5l-19.6-17.5v-322.6l19.6-17.5c94-84 238.6-126.6 392.9-126.8q5.2 0 10.4 0.1z"/>
		<path id="Path 34" class="s19" d="m3528.1 1000.6l676 296.9-676 296.9-676-296.9z"/>
		<path id="Path 35" class="s2" d="m4235.4 1297.5l-707.3 310.7-10.4-4.6v-27.5l10.4 4.6 644.7-283.2-644.7-283.1-10.4 4.6v-27.6l10.4-4.6zm-696.9-306v27.5l-10.4-4.6-644.7 283.2 644.7 283.1 10.4-4.6v27.5l-10.5 4.6-707.3-310.6 691.7-303.8 15.7-6.9z"/>
		<path id="Path 36" class="s20" d="m3881.9 1342.2v269.9c-78 69.7-211.1 111.8-353.8 111.9-142.7-0.1-275.7-42-353.8-111.7v-269.9c78-69.7 211.1-111.7 353.8-111.8 142.7 0 275.7 42 353.8 111.6z"/>
		<path id="Path 37" class="s19" d="m3881.9 1342.2v270c-78 69.6-211.1 111.7-353.8 111.8v-493.4c142.7 0 275.7 42 353.8 111.6z"/>
		<path id="Path 38" class="s21" d="m3372.7 1706.5c-45.3-10.5-87.2-25.5-123.8-44.3v-369.8c36.6-18.8 78.5-33.7 123.8-44.2z"/>
		<path id="Path 39" class="s2" d="m3891.6 1331.3l5 4.3v283.1l-4.9 4.4c-82.1 73.3-218 115.4-363.6 115.6q-5.2-0.1-10.4-0.1v-29.4q5.2 0.1 10.4 0.1c137.2-0.1 264.4-40.8 339.1-104.7v-254.8c-74.8-63.9-202-104.5-339.1-104.5q-5.2 0-10.4 0.1v-29.4q5.2-0.1 10.4-0.1c145.5 0 281.4 42.2 363.5 115.4zm-353.1-115.3v29.4q-5.2-0.1-10.4-0.1c-137.2 0.1-264.4 40.7-339.1 104.7v254.7c74.7 63.9 201.9 104.6 339.1 104.6q5.2 0 10.4-0.1v29.4q-5.2 0-10.4 0.1c-145.5-0.1-281.5-42.2-363.6-115.4l-4.9-4.4v-283l4.9-4.4c82-73.3 218-115.4 363.6-115.6q5.2 0 10.4 0.1z"/>
		<path id="Path 40" class="s22" d="m3189.9 1083.6c4.2 4.2 6.5 9.9 6.4 15.8v603.2c0.1 5.9-2.2 11.5-6.3 15.7-4.2 4.2-9.8 6.6-15.7 6.6-5.9 0-11.5-2.4-15.7-6.6-4.1-4.2-6.4-9.8-6.3-15.7v-603.2c-0.1-5.8 2.1-11.4 6.2-15.6 4.1-4.2 9.6-6.6 15.5-6.7 5.9-0.1 11.7 2.2 15.9 6.5zm22.6 619c0 21-17.1 38.1-38.2 38.1-10.1 0-19.8-4-27-11.1-7.2-7.2-11.2-16.9-11.2-27 0-10.2 4-19.9 11.2-27 7.2-7.2 16.9-11.2 27-11.2 21.1 0 38.2 17.1 38.2 38.2zm-2.7 60.3v94.5h-71v-94.5c0-19.6 15.8-35.5 35.5-35.5 19.7 0 35.5 15.9 35.5 35.5z"/>
		<path id="Path 41" class="s2" d="m1600.8 3440v416.8l295.6 385.2 295.7-385.2v-416.8h117.5v456.6l-413.2 538.4-413.1-538.4v-456.6zm582.4-945.8c69 0 126.4 57.3 126.4 126.3v840.4h-117.5v-840.4q0-8.9-8.9-8.9h-573.5q-8.9 0-8.9 8.9v840.4h-117.5v-840.4c0-69 57.4-126.3 126.4-126.3z"/>
		<path id="Path 42" class="s23" d="m2250.8 2999.8v876.9l-354.4 461.9-354.4-461.9v-876.9z"/>
		<path id="Path 43" class="s24" d="m2250.8 2999.8v876.9l-44.8 58.5-191.4-58.1v-877.3z"/>
		<path id="Path 44" class="s25" d="m1778.3 2999.8v877.3l-191.4 58.1-44.9-58.5v-876.9z"/>
		<path id="Path 45" class="s26" d="m1778.2 3877.1c29.8-34.2 72.9-53.9 118.2-53.9 45.3 0.1 88.4 19.7 118.2 53.9 29.7-34.2 72.9-53.9 118.2-53.9 47.1 0 89.3 20.7 118 53.5q0 0 0 0l-354.4 461.8-354.3-461.8c28.7-32.8 70.9-53.5 118-53.5 45.3 0.1 88.4 19.7 118.1 53.9z"/>
		<path id="Path 46" class="s27" d="m2250.8 3876.7l-354.4 461.8 118.2-461.4c29.7-34.2 72.9-53.9 118.2-53.9 47.1 0 89.3 20.7 118 53.5z"/>
		<path id="Path 47" class="s28" d="m1660.1 3823.2c45.3 0 88.4 19.7 118.2 53.9l118.1 461.5-354.3-461.9c28.7-32.8 70.9-53.5 118-53.5z"/>
		<path id="Path 48" class="s29" d="m2036.4 4156.1l-140 182.4-139.9-182.4z"/>
		<path id="Path 49" class="s30" d="m1542 2776.4h708.8v223.4h-708.8z"/>
		<path id="Path 50" class="s31" d="m1609.7 2552.9h573.5c37.5 0 67.6 30.2 67.6 67.6v155.9h-708.8v-155.9c0-37.4 30.2-67.6 67.7-67.6z"/>
		<path id="Path 51" class="s2" d="m1756.5 4141.5h279.9v29.3h-279.9zm-96.4-332.9c44.5 0.1 86.4 18.1 118.1 48.7 31.8-30.6 73.8-48.7 118.3-48.7 44.4 0.1 86.3 18.1 118.1 48.7 31.8-30.6 73.7-48.7 118.2-48.7 51.4 0 97.6 22.6 129.1 58.5l-22.1 19.4c-26.1-29.8-64.2-48.5-107-48.5-41.1 0-80.2 17.8-107.2 48.8l-11 12.8-11.1-12.8c-27-31-66-48.8-107.1-48.8-41.1 0-80.2 17.8-107.1 48.8l-11.1 12.8-11.1-12.8c-26.9-31-66-48.8-107.1-48.8-42.7 0-80.8 18.7-106.9 48.5l-22.1-19.4c31.4-35.9 77.7-58.5 129.1-58.5z"/>
		<path id="Path 52" class="s32" d="m2014.6 2776.4h236.2v223.4h-236.2z"/>
		<path id="Path 53" class="s17" d="m1542 2776.4h236.3v223.4h-236.3zm0 0h708.8v54.5h-708.8z"/>
		<path id="Path 54" class="s33" d="m2183.2 2552.9c37.5 0 67.6 30.2 67.6 67.6v155.9h-236.2v-223.5z"/>
		<path id="Path 55" class="s34" d="m2183.2 2552.9c37.5 0 67.6 30.2 67.6 67.6v35.9h-708.7v-35.9c0-37.4 30.1-67.6 67.6-67.6z"/>
		<path id="Path 56" class="s2" d="m1556.7 3440v431.7l339.7 442.8 339.8-442.8v-431.7h29.3v441.7l-369.1 481-369-481v-441.7zm694.1-678.3v29.4h-708.8v-29.4zm0 223.4v29.4h-708.8v-29.4zm-67.7-446.9c45.4 0 82.3 37 82.3 82.3v840.4h-29.3v-840.4c0-29.6-23.4-52.9-53-52.9h-573.5c-29.6 0-52.9 23.3-52.9 52.9v840.4h-29.4v-840.4c0-45.3 37-82.3 82.3-82.3zm2922 267.2c44 22 86.4 60.4 86.4 117.6v841.9c0 57.2-42.4 95.7-86.4 117.7-44 22-97.7 33.1-156.5 33.1q-5.3 0-10.4-0.1v-117.5q5.1 0.1 10.4 0.2c42.9 0 81.3-9.5 104-20.8 19.8-9.9 21.4-16.9 21.4-14.3v-838.5c0 2.7-1.6-4.4-21.4-14.3-22.7-11.3-61.1-20.8-104-20.8q-5.3 0.1-10.4 0.3v-117.6q5.1-0.1 10.4-0.1c58.8 0 112.5 11.1 156.5 33.2zm-146-33.1v117.6c-3.5-0.2-7-0.2-10.5-0.2-42.9 0-81.3 9.4-103.9 20.7-19.9 9.9-21.4 17-21.5 14.4v838.4c0.1-2.6 1.6 4.4 21.5 14.3 22.6 11.3 61 20.8 103.9 20.8 3.5 0 7-0.1 10.5-0.2v117.5q-5.3 0.1-10.5 0.1c-58.8 0-112.5-11.1-156.5-33.1-44-22-86.4-60.5-86.4-117.7v-841.9c0-57.2 42.4-95.6 86.4-117.6 44-22 97.7-33.2 156.5-33.2q5.2 0 10.5 0.1zm446.9 391l-77.7 134.6 77.7 134.7h-354.1v-117.5h150.7l-10-17.2 10-17.2h-150.7v-117.4z"/>
		<path id="Path 57" class="s35" d="m5052 3222h252.4l-43.8 75.9 43.8 76-252.4-0.1z"/>
		<path id="Path 58" class="s2" d="m5329.9 3207.3l-52.4 90.6 52.3 90.6h-277.8v-29.3h227l-35.4-61.3 35.4-61.2h-227v-29.4z"/>
		<path id="Path 59" class="s36" d="m4764.5 2923h368.4v841.9h-368.4zm368.4 841.9c0 24.5-19.4 47.9-54 65.1-34.5 17.3-81.3 27-130.2 27-48.8 0-95.7-9.7-130.2-27-34.5-17.2-54-40.6-54-65.1 0-50.8 82.5-92 184.2-92 101.7 0 184.2 41.2 184.2 92z"/>
		<path id="Path 60" fill-rule="evenodd" class="s35" d="m5132.9 3222v151.9c0 50.8-82.5 92-184.2 92-101.7 0-184.2-41.2-184.2-92v-151.9m0 0c0 50.9 82.5 92.1 184.2 92.1 101.7 0 184.2-41.2 184.2-92.1z"/>
		<path id="Path 61" class="s37" d="m5132.9 2923v841.9c-0.1 35.9-41.8 68.4-106.9 83.5v-925.4z"/>
		<path id="Path 62" class="s38" d="m5132.9 3373.9c0 37-43.8 68.9-106.9 83.5v-151.8c63.1-14.6 106.9-46.6 106.9-83.6z"/>
		<path id="Path 63" class="s2" d="m4764.3 2908.2c4-0.1 7.8 1.4 10.6 4.2 2.8 2.9 4.4 6.7 4.3 10.6v841.9c0 17.5 15.2 36.7 45.9 52 30.6 15.4 74.7 25.4 123.6 25.4 48.9 0 93-10 123.7-25.4 30.6-15.3 45.8-34.5 45.8-52v-841.9c-0.1-3.9 1.5-7.7 4.2-10.5 2.8-2.8 6.6-4.4 10.5-4.4 3.9 0 7.7 1.6 10.4 4.4 2.8 2.8 4.3 6.6 4.3 10.5v841.9c0 33.4-26.1 60.3-62.1 78.3-36 18-84 28.5-136.8 28.5-52.8 0-100.8-10.5-136.8-28.5-36-18-62-44.9-62-78.3v-841.9c-0.2-8.1 6.3-14.7 14.4-14.9z"/>
		<path id="Path 64" class="s0" d="m5132.9 2923c0 24.4-19.4 47.9-54 65.1-34.5 17.3-81.3 27-130.2 27-101.7 0-184.2-41.2-184.2-92.1 0-50.8 82.5-92.1 184.2-92.1 101.7 0 184.2 41.3 184.2 92.1z"/>
		<path id="Path 65" class="s17" d="m5032.2 2907.8c49.8 17.4 69.3 69.1 16.4 92.6-29.8 9.6-64.5 14.7-99.9 14.7-29.2 0-57.9-3.5-83.8-10.2v-92c26.1-11.8 56.2-17.2 85.7-17.6 29.4-0.3 58.2 4.3 81.6 12.5z"/>
		<path id="Path 66" class="s2" d="m5085.5 2844.8c36 18 62.1 44.8 62.1 78.2 0 33.4-26.1 60.2-62.1 78.2-36 18-83.9 28.6-136.8 28.6q-5.2 0-10.4-0.2v-29.4q5.2 0.2 10.4 0.2c48.9 0 93-10.1 123.7-25.4 30.6-15.4 45.8-34.5 45.8-52 0-17.5-15.2-36.6-45.8-52-30.7-15.3-74.8-25.4-123.7-25.4q-5.2 0-10.4 0.2v-29.4q5.2-0.2 10.4-0.2c52.9 0 100.8 10.6 136.8 28.6zm-306.3 377.2c0 17.5 15.2 36.6 45.9 52 30.6 15.3 74.8 25.4 123.6 25.4 48.9 0 93-10.1 123.7-25.4 30.6-15.4 45.8-34.5 45.8-52h29.4c0 33.4-26.1 60.2-62.1 78.2-36 18-83.9 28.6-136.8 28.6-52.8 0-100.8-10.6-136.8-28.6-36-18-62-44.8-62-78.2zm0 151.9c0 17.5 15.1 36.6 45.8 51.9 30.6 15.4 74.8 25.5 123.7 25.5 48.8 0 92.9-10.1 123.6-25.5 30.7-15.3 45.8-34.4 45.8-51.9h29.4c0 33.3-26.1 60.2-62.1 78.2-36 18-83.9 28.5-136.7 28.5-52.9 0-100.8-10.5-136.8-28.5-36-18-62.1-44.9-62.1-78.2zm257.9-480c28.5 10.1 49.9 29.9 56 54.4 3.1 12.3 1.7 25.8-5.1 37.5-6.7 11.7-18.2 21.2-33.6 28l-11.9-26.8c11.2-5 17.1-10.7 20.1-15.8 2.9-5.2 3.5-10.1 2-15.8-2.9-11.6-16.1-26.3-37.3-33.8-40.5-14.2-101.1-15.8-147.8 2v81.4h-29.3v-101.6l8.6-3.9c28.4-12.8 60.3-18.6 91.4-19.1 31.2-0.4 61.5 4.6 86.9 13.5zm-78-77.5v29.4q-5.2-0.2-10.4-0.2c-48.9 0-93 10.1-123.7 25.4-30.6 15.4-45.8 34.5-45.8 52 0 17.5 15.2 36.7 45.8 52 30.7 15.3 74.8 25.4 123.7 25.4q5.2 0 10.4-0.2v29.4q-5.2 0.2-10.4 0.2c-52.9 0-100.8-10.5-136.8-28.5-36-18-62.1-44.9-62.1-78.3 0-33.4 26.1-60.2 62.1-78.2 36-18 83.9-28.6 136.8-28.6q5.2 0 10.4 0.2z"/>
	</g>
</svg>